<svg xmlns="http://www.w3.org/2000/svg" viewBox="0 0 346.47 101.25"><defs><style>.cls-1{fill:#9987d8;}.cls-2{fill:#78dce8;}.cls-3{fill:#5dacb7;}</style></defs><g id="Layer_2" data-name="Layer 2"><g id="Layer_1-2" data-name="Layer 1"><path class="cls-1" d="M346.46,38.58H86.55c0-.33,0-.94,0-.94,1.33,0,2.66,0,4,0H342.47c1.33,0,2.66,0,4,0C346.47,37.64,346.46,38.25,346.46,38.58Z"/><path class="cls-1" d="M346.46,90.14H86.55c0-.32,0-.93,0-.93,1.33,0,2.66,0,4,0H342.47c1.33,0,2.66,0,4,0C346.47,89.21,346.46,89.82,346.46,90.14Z"/><path class="cls-2" d="M124.36,58.16v2.93c-2.36,6-6.14,10.12-13.34,10.3-7.62.19-11.83-3.84-14.33-10.31l0-2.92c1-2.34,3.23-2.62,5.39-2.66,6.11-.14,12.2.35,18.31.26A3.91,3.91,0,0,1,124.36,58.16Z"/><path class="cls-3" d="M96.7,61.08a9.83,9.83,0,0,1,3.18,3.56c4.78,7.39,16.53,7.39,21.32,0a9.69,9.69,0,0,1,3.17-3.55c0,4.23.08,8.46.15,12.69,0,2-.89,3-3,2.94q-11-.07-22,0c-2.12,0-3-.9-3-2.94C96.63,69.55,96.66,65.32,96.7,61.08Z"/><path class="cls-3" d="M124.36,58.16a5.82,5.82,0,0,0-3.67-1c-6.76.08-13.54.08-20.3,0a5.9,5.9,0,0,0-3.67,1c-.67-8.08.07-6.74,7.11-6.89A3.65,3.65,0,0,1,107,52.33c1.53,1.85,3.56,2,5.79,1.93,2.8-.11,5.61-.08,8.41,0C124.19,54.33,124.24,54.43,124.36,58.16Z"/><path class="cls-1" d="M185.5,57.21c-.83-.12-1.11.33-1.31,1s-.86.9-1.57.85c-.86-.07-1-.66-1.06-1.35s0-1.64-.08-2.44c0-.42-.18-1-.87-.86a1.06,1.06,0,0,0-.88,1c-.08.8-.06,1.62-.1,2.44s-.35,1.27-1.18,1.18-.95-.72-1-1.4a16.36,16.36,0,0,0-.09-2.43c-.06-.42-.3-1-1-.83a1,1,0,0,0-.81,1c0,.81,0,1.63-.06,2.44s-.32,1.29-1.17,1.19-1-.65-1-1.37c0-.32,0-.65,0-1,.12-5-.75-4.35,4.48-4.41.74,0,1.39.51,2.28.17a2.81,2.81,0,0,1,4,1.7c.07.16.91,0,1.4,0A2,2,0,0,1,185.5,57.21Z"/><path class="cls-1" d="M321.44,54c.25-1.29-.74-3.93.65-4.17,2.15-.36,2,2.44,2.75,3.91.23.42.42.87.63,1.3l.42.86c.33-.3.77-.54,1-.91a34.59,34.59,0,0,0,1.52-3.54c.29-.81.65-1.71,1.53-1.66s.84,1.15.86,1.88a27.9,27.9,0,0,1,0,3.88c-.12,1.15.7,3-.79,3.21-.9.11-.33-1.94-.59-3-.08-.34.19-.92-.44-.93-.15,0-.33.5-.46.78-.34.73-.63,1.48-1,2.2-.79,1.58-1.42,1.74-2.37.44s-1.62-3.82-2.07.14c0,.22-.43.48-.71.56-.71.22-.84-.44-.86-.81C321.39,56.84,321.44,55.54,321.44,54Z"/><path class="cls-1" d="M142.49,72.12v1.95c0,.65,0,1.36-.83,1.51s-1-.54-1.11-1.2c-.27-2.11-.6-1.21-1.16-.07-.88,1.77-1.92,1.51-2.69-.07-.68-1.39-1-1.71-1.16.15,0,.65-.16,1.34-1.09,1.19a1,1,0,0,1-.81-1c0-1.78,0-3.57,0-5.36a1.14,1.14,0,0,1,.76-1.1c.57-.24,1,.14,1.29.47a5.26,5.26,0,0,1,.84,1.18c.54.94,1,1.91,1.56,2.87a3.66,3.66,0,0,0,1.54-2.91,2.38,2.38,0,0,1,.83-1.18c.33-.32.77-.77,1.27-.42a1.77,1.77,0,0,1,.72,1.11,28.44,28.44,0,0,1,0,2.92Z"/><path class="cls-1" d="M141.5,57.25c-.86-.12-1,.44-1.27,1.09a1.37,1.37,0,0,1-1.62.76c-.86-.09-1-.69-1-1.37s0-1.63-.09-2.43c-.06-.44-.26-.93-.89-.9s-.76.49-1,.92c-.55,1.21.91,3.67-1.09,3.61-2.27-.08-1-2.56-1.17-4-.14-.87-.39-2.44.76-2.47,1.79-.06,4.05-1.3,5.37,1a1.41,1.41,0,0,0,2,.71A2,2,0,0,1,141.5,57.25Z"/><path class="cls-1" d="M302,59.2h-1c-.82,0-1.9.23-2.31-.5s.4-1.45,1-2c.93-.92,1.87-1.84,2.75-2.81.56-.62.94-1.35.12-2.07a1.22,1.22,0,0,0-2,.26,2.67,2.67,0,0,1-.95,1,.7.7,0,0,1-.94-.74A3.47,3.47,0,0,1,302,49.37a3,3,0,0,1,2.69,2.92,4.15,4.15,0,0,1-1.43,3.48c-1.2,1.09-.53,1.47.66,1.79.41.11,1,.61,1,.93,0,.92-.9.57-1.43.68A8.21,8.21,0,0,1,302,59.2Z"/><path class="cls-1" d="M208.46,55.75c0,3.32,0,3.32-2.63,3.39-3.8.1-4.26-.26-4.36-3.48,0-.65,0-1.3,0-1.94s.18-1.33,1-1.35,1.1.54,1.14,1.24,0,1.3.11,1.94.33,1.37,1.14,1.34.74-.84.86-1.42c.25-1.13-.7-3.09,1.32-3C209.47,52.47,208,54.67,208.46,55.75Z"/><path class="cls-1" d="M162.25,56.41c.84.08,1.77.09,2.07-.79s-.29-1.53-.83-2.15a3.54,3.54,0,0,0-4.44-.87c-1.82.83-1.85,2.5-1.57,4.14.33,2,1.72,2.56,4.23,2.4a5.38,5.38,0,0,0,1.24-.31A1.44,1.44,0,0,0,164,57.46c0-.23-.8-.48-1.26-.52-.64,0-1.29.13-1.94.12a2.89,2.89,0,0,1-.89-.35,3.38,3.38,0,0,1,.87-.35A7.26,7.26,0,0,1,162.25,56.41Z"/><path class="cls-1" d="M223.18,59.14a3.91,3.91,0,0,1-1.2-.32c-.41-.2-.66-.7-1-1.06a4.23,4.23,0,0,1,1-.73,13.34,13.34,0,0,1,1.91-.31,8.9,8.9,0,0,1-1.65-.44,1.93,1.93,0,0,1-1-2.48,1.84,1.84,0,0,1,1.73-1.5c1.14-.08,2.36-.37,3.33.5a5.52,5.52,0,0,1,.76,1.12c-.28.16-.67.25-.81.49s-1.55,0-.66.44c1.49.71,2.2,1.41,1.59,2.9S225.28,59.28,223.18,59.14Z"/><path class="cls-1" d="M209,69.89a1.9,1.9,0,0,0-1.78.65c-.78,1.1-.32,2.45-.69,3.7-.47,1.56,1.16,1.54,2.33,1.55,2.35,0,2.62-.23,2.6-2.41S210.71,70,209,69.89Z"/><path class="cls-1" d="M171.56,72.94c.07,2.36-.35,2.92-2.08,2.87-2-.07-2.95-1-3-2.91a2.61,2.61,0,0,1,2.38-3C170.5,69.63,171.49,70.8,171.56,72.94Z"/><path class="cls-1" d="M150.53,74.78c-1.23-.36-2,.82-3.06.94-1.34-.72-3.32-.82-3.33-2.88s2-2.19,3.32-2.89c1.09.1,1.85,1.29,3.09.94A2.59,2.59,0,0,1,150.53,74.78Z"/><path class="cls-1" d="M288.23,54.84c-.56,1,1.22,3.13-1.13,4.18-1.24-1.4-.36-3.08-.63-4.61-.15-.84.64-2.72-1.61-1.45-.18.1-.75-.77-.48-1.15a8.91,8.91,0,0,1,1.75-1.66c1.19-.94,1.87-.18,2.05.86A23.57,23.57,0,0,1,288.23,54.84Z"/><path class="cls-1" d="M248.08,72.09c-1.26.91-1.58.37-1.59-.94,0-2.84.13-3.16,2.26-3.23.8,0,2.23-.29,2.27.31.1,1.4-1.55.32-2.15,1-.32.35-.87.7-.89,1.07s.6.54,1.05.52c1.49-.06,2.55.25,2.61,2,.1,2.55-1.14,3.59-3.63,2.74-.55-.19-1.38-1.06-1.28-1.28.31-.69,1-.56,1.6-.09s1.53.68,2-.28a1.67,1.67,0,0,0,0-1.4C249.78,71.72,248.92,71.84,248.08,72.09Z"/><path class="cls-1" d="M209.53,54.31c0-1.14-.05-2.28,0-3.42,0-.63.22-1.36,1.12-1.26A1.28,1.28,0,0,1,211.74,51c0,2.28,0,4.56,0,6.83a1.07,1.07,0,0,1-1.21,1.18c-.83,0-1-.64-1-1.32,0-1.14,0-2.28,0-3.42Z"/><path class="cls-1" d="M213.57,75.19a11.3,11.3,0,0,0-.53-2.12c-.41-.89-1.1-2.22-.33-2.61,1.22-.61.76,1.22,1.53,1.7,1.91,1.16.91-1,1.63-1.27.44-.13.88-.81,1.16-.73.46.14.51.79.26,1.24-1,1.81-1.09,4-2.6,5.62-.45.46-.95,1-1.66.45s.18-.76.24-1.15S213.43,75.71,213.57,75.19Z"/><path class="cls-1" d="M227.45,72.39c-.22.87.69,3-.71,3.06-2.42.09-1-2.19-1.15-3.38s-.11-2-1.78-1.65c-.3.08-.3-.84,0-1.21.64-.74,1.34-1.51,2.47-1.25.42.09,1.06.46,1.1.76A33.35,33.35,0,0,1,227.45,72.39Z"/><path class="cls-1" d="M168.05,61.35c-1.42-.27-3.92.53-3.94-.78,0-2.31,2.5-1.43,3.89-1.33s4.28-1.28,4.25,1.24C172.22,62.15,169.46,60.91,168.05,61.35Z"/><path class="cls-1" d="M151.46,70.79c.3-1.7,2.73-.37,2.78-2.55,0-.32,1.22-.52,1.24.14.07,2.08.54,4.68-.15,6.5-.59,1.56-2.57,1.54-3.9,0,.08-.2.16-.41.23-.61a2.17,2.17,0,0,0,0-2.89C151.6,71.19,151.53,71,151.46,70.79Z"/><path class="cls-1" d="M161.82,69.25c1.09,1.23-.37,2.25-.29,3.43a3.94,3.94,0,0,1-.35,2.81,5.47,5.47,0,0,1-1.59-3.19c-.34-1.4.32-2.5.93-3.61.19-.35.77-.79,1.09-.74C162.64,68.12,162.27,68.72,161.82,69.25Z"/><path class="cls-1" d="M190.82,67.93a7.43,7.43,0,0,1,1.79.13c.8.19.28.77-.05.76-1.86,0-2,1-2.06,2.51s.52,2.87-.44,4.18c-1.1-1.21-.37-2.68-.57-4-.15-1,.38-2.34-1.38-2.56a4.42,4.42,0,0,1-1.26-.57,7.57,7.57,0,0,1,1.36-.41A25.81,25.81,0,0,1,190.82,67.93Z"/><path class="cls-1" d="M243.43,75.6c-3.67-.25-4-.53-4-3.75s.33-3.53,3.95-3.75a1.77,1.77,0,0,1-.37,1.8,2.43,2.43,0,0,0,0,3.9A1.77,1.77,0,0,1,243.43,75.6Z"/><path class="cls-1" d="M243.43,75.6c0-.59-.44-.78-1-.83a9,9,0,0,1,0-5.84c.52-.05.91-.24.95-.83C246.32,71.76,246.32,71.94,243.43,75.6Z"/><path class="cls-1" d="M233.39,72c-.65,0-1.46-.26-1.94,0-2.09,1.21-2,0-2-1.47a2.85,2.85,0,0,1,4.3-2.44,3.66,3.66,0,0,1,.42.26c-.22.19-.4.5-.65.55a13.11,13.11,0,0,0-2.39.34c-.82.34-.62,1.12,0,1.46s2-.23,2.43,1.09Z"/><path class="cls-1" d="M147.46,70c-.14.25-.21.6-.42.74-3.28,2.14-3.27,2.13,0,4.28.21.14.27.49.41.75-3.4-.39-4-.8-4-2.88S144.06,70.34,147.46,70Z"/><path class="cls-1" d="M158.49,72.94a10,10,0,0,1,0,1.9c-.09.4-.32.92-1,.77a1,1,0,0,1-.84-1c-.05-1.11,0-2.23,0-3.35,0-.68.23-1.33,1.08-1.22s.88.75.84,1.42c0,.48,0,1,0,1.44Z"/><path class="cls-1" d="M163.53,72.88a9.31,9.31,0,0,1,0-2.15.83.83,0,0,1,1.08-.68c.28.11.64.35.69.58a4.4,4.4,0,0,1,.12,1.9c-.27,1.07,1,3.08-1.16,3C162.87,75.47,163.74,73.66,163.53,72.88Z"/><path class="cls-1" d="M233.61,71.77c1.33.43,1,1.55.8,2.36a2.14,2.14,0,0,1-2.15,1.62c-.47,0-1.26,0-1.35-.26-.38-1,.6-.67,1-.84a2.29,2.29,0,0,0,1.44-2.7Z"/><path class="cls-1" d="M306.73,57.11c1.08.24,1.48.51,1.48,1,0,.8-.68,1.05-1.3,1a.86.86,0,0,1-.58-1.11A3.71,3.71,0,0,1,306.73,57.11Z"/><path class="cls-1" d="M216,56.89a1.23,1.23,0,0,1,.08-.23h0c.5-1.3,2.33.08,3.49-.37-.34-3.22-.84-3.9-2.9-4a3.3,3.3,0,0,0-3.6,2.61,3.74,3.74,0,0,0,1.7,3.94c1.55.78,3.17.22,4.74-1.65C218.29,56.7,215.84,57.61,216,56.89Z"/><path class="cls-1" d="M181.45,71.08c-.16.45-.42.84-1,.68s-.91-.4-.76-1,.42-.9,1-.74S181.56,70.47,181.45,71.08Z"/><path class="cls-1" d="M150.53,74.78l0-3.89a1.36,1.36,0,0,1,.91-.1l.07.08a2.77,2.77,0,0,1,0,3.9l-.11.12-.46,0Z"/><path class="cls-1" d="M181.43,74.65c.18.62-.26.88-.7,1s-.9-.27-1-.71.28-.85.73-1C181,73.77,181.24,74.23,181.43,74.65Z"/><path class="cls-1" d="M217.92,77.39c-.58-.49-.45-1.12-.35-1.69,0-.19.08-1.17.68-.45.31.37.2,1.11.2,1.69C218.45,77.09,218.11,77.24,217.92,77.39Z"/><path class="cls-1" d="M156.44,54.67a24.8,24.8,0,0,0-.15-3.85,1.81,1.81,0,0,0-.85-1.07,1,1,0,0,0-1.49.74c-.15,1.88-1.48,1.83-2.8,1.87-1.49,0-1.59,2.73-3.59,1.78a2.09,2.09,0,0,0,0,3.14c.61-.1,1.25-.52,1.73.28,1.54,2.58,4.21,1.88,6.2,1.36S156.37,56.17,156.44,54.67ZM153.54,56c-.11.54-.38,1.17-1.21,1s-.86-.85-.79-1.53.37-1.29,1.19-1.12S153.6,55.23,153.54,56Z"/><path class="cls-1" d="M200.39,55.15a21.65,21.65,0,0,0-.12-4.33,1.74,1.74,0,0,0-.85-1.07,1,1,0,0,0-1.48.75c-.16,1.87-1.49,1.82-2.81,1.86-1.49,0-1.59,2.73-3.58,1.78a2.08,2.08,0,0,0,0,3.14,1.5,1.5,0,0,1,2,.65c1.57,2.16,4,1.43,5.9,1S200.25,56.47,200.39,55.15ZM196.71,57c-.82.18-1.13-.42-1.19-1.13s0-1.36.8-1.53,1.06.51,1.19.88C197.61,56.2,197.45,56.87,196.71,57Z"/><path class="cls-1" d="M339.52,55.51c-.07-.79-.14-1.56-.14-2.36,0-2.78-1.42-3.77-4.84-3.75-2.77,0-1.88,2-2,3.43a14,14,0,0,0,0,1.45h0c0,.48,0,1,0,1.44.06,3.6.23,3.74,3.88,3.46C339.07,59,339.75,58.25,339.52,55.51Zm-3.62-4.18c.66,0,1.39.14,1.44,1,.06,1-.81,1.38-1.57,1.57s-1.15-.4-1.25-1.11C334.37,51.74,334.89,51.27,335.9,51.33Zm.55,6c-.82.22-1.58.21-1.9-.85a1,1,0,0,1,1-1.17c.79,0,1.67-.14,2,.82C337.74,56.92,337.07,57.16,336.45,57.32Z"/><path class="cls-1" d="M295.08,53.38c-.55-.27-1.32-.08-2-.23-.45-.11-.89-.47-.6-1s.51-.88,1.11-.78a4.07,4.07,0,0,1,1.38.4c.57.32,1.22.81,1.57,0,.25-.58-.31-1.17-.86-1.59a2.87,2.87,0,0,0-3.24-.29c-2,.95-2.14,2.71-2.2,5.35a9.92,9.92,0,0,0,.19,1.61c.38,1.67,1.51,2.35,3.24,2.4a3.14,3.14,0,0,0,3.35-2.38C297.58,55.16,296.47,54.07,295.08,53.38Zm-1.19,4.44a1.55,1.55,0,0,1-1.45-2c.14-.63.36-1.35,1.16-1.29a2.36,2.36,0,0,1,1.92,1.38C295.37,57.23,294.54,57.87,293.89,57.82Z"/><path class="cls-1" d="M315.54,54.89c-.14-.62,0-1.3-.09-1.92-.24-1.14.82-2.91-1-3.27-1.56-.31-2,1.38-2.66,2.42-.36.54-.74,1.07-1.08,1.62-1.53,2.47-1.53,2.48,1.69,3.53.45.15.91.24,1.09.78s.8,1.29,1.36.84a8.15,8.15,0,0,0,1.48-2.14A10.74,10.74,0,0,1,315.54,54.89Zm-3,1.22c-.5-.13-1.05-.26-.86-.89a2.27,2.27,0,0,1,1.53-1.72,1.77,1.77,0,0,1,.38.82C313.69,55.16,313.64,56,312.54,56.11Z"/><path class="cls-1" d="M147.56,54.14c-2.69-2.58-3.37-2.57-6.06,0v3.08c.41,1.74,1.74,1.91,3.26,1.9s2.45-.42,2.81-1.87C147.57,56.23,147.57,55.19,147.56,54.14Zm-2.73,2.92c-1,.23-1.36-.54-1.34-1.41,0-.63.15-1.25,1-1.34s.9.67,1.06.93C145.68,56.2,145.48,56.92,144.83,57.06Z"/><path class="cls-1" d="M191.55,54.14c-2.71-2.59-3.42-2.58-6,.07,0,1,0,2,0,3,.31,1.48,1.33,1.93,2.76,1.94s2.88-.09,3.3-1.87C191.56,56.23,191.55,55.19,191.55,54.14Zm-2.87,2.94c-.78.14-1.16-.39-1.18-1.1s-.09-1.68,1.09-1.66c.84,0,.88.73,1,1.22C189.58,56.31,189.41,57,188.68,57.08Z"/><path class="cls-1" d="M178.5,73.13a14,14,0,0,0,0-1.45c0-3.4,0-3.39-3.19-1.86-.57.28-1.31.3-1.78.67a2.89,2.89,0,0,0-.68,3.91c.95,1.86,2.76,1.46,4.36,1.34C179,75.6,178.38,74.14,178.5,73.13Zm-2.77,1.42c-1,.22-1.24-.68-1.26-1.5s-.09-1.74.84-1.94,1.21.68,1.24,1.5S176.69,74.36,175.73,74.55Z"/><path class="cls-1" d="M205.46,72c-.24-1.24.61-2.84-.51-3.68-1.65-1.22-1.21,2.06-2.84,1.58a2,2,0,0,0-1.36.36c-1.56.93-1.61,2.47-1.13,3.85.67,1.92,2.5,1.77,4.18,1.7,2.08-.1,1.64-1.59,1.66-2.83Zm-2,1.31c-.07.63-.21,1.36-1,1.3a1.89,1.89,0,0,1-1.84-1.78c-.06-.86.78-1.72,1.39-1.64A1.82,1.82,0,0,1,203.5,73.3Z"/><path class="cls-1" d="M195.73,69.85a2.78,2.78,0,0,0-3.23,2.77,3,3,0,1,0,3.23-2.77Zm-.14,4.72c-.85.2-1-.56-1.09-1.18-.09-.9-.16-1.84.76-2.33a1.13,1.13,0,0,1,1.26,1.23C196.55,73.16,196.84,74.26,195.59,74.57Z"/><path class="cls-1" d="M151.54,74.77v-3.9c1.46-.05,2.8.51,2.81,2S153,74.85,151.54,74.77Z"/><path class="cls-1" d="M242.47,68.93a4.51,4.51,0,0,1,0,5.84C239.76,72.27,239.76,71.49,242.47,68.93Z"/><path class="cls-1" d="M85.07,66.21c1.23,2.7,1.55,6.91,1.32,10.41-.26,3.84-2.81,6.57-5.59,9a19.5,19.5,0,0,1-10.48,4.62c-1,.14-1.23.49-1.12,1.5.16,1.38.21,2.71,1.67,3.42a1.54,1.54,0,0,1,.43.48,3.64,3.64,0,0,1,.33,4.13A3.9,3.9,0,0,1,69,101.19a19.27,19.27,0,0,1-4.34-.21c-1.54-.15-3.06-.42-4.6-.59-2.17-.25-4.36-.32-6.5-.71-2.61-.47-5-1.43-5.26-5a7.71,7.71,0,0,1-6,2.51c-2.36-.12-4.71-.43-7.07-.65-1.53-.14-3.07-.36-4.61-.36-2.68,0-5.37.23-8.06.25-3.95,0-7.9-.14-11.85,0A18.48,18.48,0,0,1,2,95C0,94-.72,92.11.88,90.56a10.47,10.47,0,0,0,1.94-3.48,4,4,0,0,1,4.39-2.45,27,27,0,0,1,3.32,1,10.51,10.51,0,0,1,.37-1.55,11.07,11.07,0,0,1,.87-1.58c1.07-1.79,2.55-2.13,4.22-.91.86.62,1.63,1.37,2.65,2.23-.18-.66-.27-1.11-.42-1.54a11.14,11.14,0,0,1-.59-6.46,1.91,1.91,0,0,1,2.26-1.7,6.71,6.71,0,0,1,1.21.43l4.22,1.57a6.5,6.5,0,0,0-1.12-1.84,15.15,15.15,0,0,1-3.43-7.41c-.2-1.56.63-2.55,2.1-2.32,2.37.38,4.72.91,7.08,1.38l1.44.29c-1.07-1.77-2.19-3.38-3.05-5.12a44.71,44.71,0,0,1-1.6-4.47c-.95-2.58.54-4.41,3.27-4,.3,0,.59.11.89.16L38.14,54a2.21,2.21,0,0,0-.22-.66c-1.85-2.5-2.46-5.45-3.1-8.39a1.65,1.65,0,0,1,.29-1.38,12.33,12.33,0,0,1,3.65-2,28.25,28.25,0,0,1,5.06-.41l.13-.29-2.28-1.54c-2.38-1.62-2.34-5.43.25-6.62a18.41,18.41,0,0,1,5.45-1.36c1.79-.22,1.81,0,1.65-1.63a44,44,0,0,1-4.23-2c-1.51-.94-1.82-2.5-1.63-4.2s.68-3.43,2.41-4.13a33.67,33.67,0,0,1,4.76-1.23c-2.49-.91-4.26-2.55-3.64-5.79.73-3.83,3.43-4.91,6.88-4.88-.7-3.27-.15-6,1.56-6.82C58.63-1,60.9.83,62.75,3.84c.48-.76.83-1.34,1.2-1.91A3.35,3.35,0,0,1,68.86.8a8.66,8.66,0,0,1,3.41,4.72A2.23,2.23,0,0,0,73.4,6.67C74.59,7.15,76,7.21,77,7.9c3.9,2.66,7.77,5.38,11.43,8.34a7,7,0,0,1,2.07,4,19.9,19.9,0,0,1-.2,5.49A8.06,8.06,0,0,1,85.86,32c-3.75,2-7.66,3.68-11.48,5.54-1,.49-2.13,1-2.12,2.35,0,2.08.24,4.16,1.61,5.84,2.82,3.44,4.3,2.83,10,7.59,2.33,1.95,1.69,1.58,3.93,3.64.34,2.34-2.86.87-3.93,1.92-1.36,1.33-.34,1.83-1.84,2.22A29.41,29.41,0,0,1,85.07,66.21ZM69.44,44.78a16,16,0,0,1-2.33-2.73,1.33,1.33,0,0,1,.06-1.48c.38-.38,1,.12,1.33.37a10.45,10.45,0,0,1,1.85,1.69c-.11-.7-.16-1-.2-1.36a5,5,0,0,1,3.16-5.6c3.74-1.73,7.47-3.49,11.16-5.32a7.52,7.52,0,0,0,4.1-7.57c-.09-1.63.17-3.29-1.13-4.59a16.38,16.38,0,0,0-1.89-1.74c-2.85-2.12-5.72-4.22-8.64-6.27a6.74,6.74,0,0,0-2.13-.85c-2.31-.62-4.6-1.33-7-1.72a39.26,39.26,0,0,0-6-.34,6.5,6.5,0,0,0-6.31,4.08A45.73,45.73,0,0,0,51.83,26c-.53,4.61-.69,9.27-1.52,13.81a26.9,26.9,0,0,1-3,7.2,50.7,50.7,0,0,1-3.94,6.34c-2,2.81-4.16,5.55-6.34,8.24s-3.3,5.72-4.54,8.83c-1.46,3.65-3.44,7.1-5.22,10.62-.37.72-.83,1.41-1.27,2.09-2.49,3.79-6.35,5.49-10.45,6.78a36.69,36.69,0,0,1-6,1.52c-1.89.27-3.83.06-5.75.15a5.72,5.72,0,0,0-1.55.57c.32.37.57.86,1,1.07a12.1,12.1,0,0,0,6.38,1.23c1.68-.05,3.35,0,5,0,2.83,0,5.66,0,8.48-.18a72.47,72.47,0,0,1,13.09.41c2,.27,4,.39,6.05.52a5.1,5.1,0,0,0,3.84-1.53,4.94,4.94,0,0,1,.93-.9c1.87-1,1.44-2.73,1.29-4.35,0-.12-.07-.25-.08-.38-.06-.77-.24-1.63.86-1.84a1.67,1.67,0,0,1,1.73,1.57c0,2.36,0,4.73-.19,7.08a1.87,1.87,0,0,0,1.37,2.27,22.62,22.62,0,0,0,7.72,1.28,28.4,28.4,0,0,1,5,.63c1.06.14,2.13.25,3.2.35s1.49-.51,1.5-1.48a2.34,2.34,0,0,0-2.93-2.44,7.27,7.27,0,0,1-2.28,0c-.33-.06-.57-.63-.85-1a8.09,8.09,0,0,1,1-.71,1.64,1.64,0,0,1,.64-.07c1.38-.16,1.62-.49,1.41-1.85a12.76,12.76,0,0,0-2.1-5.71c-1.52-2.16-2.57-4.65-3.93-6.94a9.17,9.17,0,0,0-1.8-1.94c-.6-.55-1.3-1.08-.72-1.93s1.43-.47,1.93,0a20.32,20.32,0,0,1,3.17,3.52c1.47,2.21,2.72,4.57,4,6.88,1,1.77,1.17,1.83,3.16,1.48a20.75,20.75,0,0,0,8.94-3.86,11,11,0,0,0,4.65-8.94c0-3.38-.27-6.64-1.88-9.64a18.57,18.57,0,0,0-2-2.5c-.37-.45-.73-.91-1.11-1.34a3.74,3.74,0,0,0-.82-.77L65.54,52.89c-.56-.33-1.29-.68-.72-1.47A1.45,1.45,0,0,1,66.89,51s12.86,8.31,14.23,7.67.23-.51,1-1.36,2.5.23,2.53-.92S69.44,44.78,69.44,44.78Zm-32.19-1.3a1.56,1.56,0,0,0-.9,2.07,20.11,20.11,0,0,0,2.83,7.25c.81,1.19,1.11,1.22,1.89,0,1.67-2.54,3.33-5.09,4.94-7.66a7.23,7.23,0,0,0,.54-1.59C43.36,42.27,40.31,42,37.25,43.48ZM37,58.59c2.16-2.19,2-2.92-1-3.64a63.58,63.58,0,0,0-6.61-1.05,1.37,1.37,0,0,0-1.43,1.88c.75,2.19,1.53,4.38,2.47,6.49a13,13,0,0,0,1.87,2.49l.43-.17C33.39,62.07,35.2,60.37,37,58.59Zm-14.85,8.6a55,55,0,0,0,2.41,5.37,17.65,17.65,0,0,0,2.05,2.64c.47.6,1,.58,1.3-.09,1-2,1.95-4.09,2.91-6.15.39-.83.21-1.4-.77-1.62l-7-1.62A1,1,0,0,0,22.11,67.19ZM43,33.65c-.69.29-1.6,1.14-1.59,1.73a4.47,4.47,0,0,0,1.15,2.82,20.51,20.51,0,0,0,3.47,2.43c1.18.77,1.85.53,2.09-.88.34-1.94.57-3.9.8-5.85.12-1-.29-1.31-2.29-1.29A25.05,25.05,0,0,0,43,33.65ZM25,80.8c.14-.21.21-.47.33-.69.93-1.61.86-2-.86-2.83-1.39-.66-2.85-1.17-4.3-1.71-.84-.31-1.08.15-1.25.93-.69,3,.64,5.61,1.68,8.36C23.1,84.46,23.79,82.38,25,80.8Zm23.22-53c.77,0,1.22-.24,1.34-1,.29-2.08.64-4.15.86-6.23,0-.26-.6-.86-.92-.85-3,0-5,1.05-4.9,4.33A4,4,0,0,0,48.17,27.84Zm.71-12.18a8.21,8.21,0,0,0,2.12,1l.81-1.95c.65-1.53,1.26-3.08,1.95-4.59.41-.91.09-1.34-.82-1.33-3,0-5,1.45-5.23,4.85A7.73,7.73,0,0,0,48.88,15.66Zm-33.69,67c-.77-.6-1.59-.43-2.3.52-1.14,1.52-1,3.13-.65,4.8,0,.24.41.63.51.6,2-.67,4.18-.94,6.19-2.41C17.61,84.88,16.49,83.65,15.19,82.63ZM56.86,1.45a2.51,2.51,0,0,0-2.25,2.43,10,10,0,0,0,.63,3.26.9.9,0,0,0,.73.07C57.46,5.48,59.62,5.52,61.66,5,60.45,2.24,58.91,1.18,56.86,1.45ZM6.65,85.9C5.09,85.91,4,87,3.53,89.21c2.48,1,4.91.4,7.46-.13A4.48,4.48,0,0,0,6.65,85.9ZM67.37,5.46c1.1.08,2.2.27,3.46.44a5.36,5.36,0,0,0-3.18-4.16A2.08,2.08,0,0,0,65.79,2,20.48,20.48,0,0,0,63.7,4.92l.38.53C65.18,5.45,66.28,5.39,67.37,5.46Z"/><path class="cls-1" d="M72.05,19.31A2.64,2.64,0,0,0,74.7,21.9a2.78,2.78,0,0,0,2.57-2.7,3,3,0,0,0-2.77-2.73A2.91,2.91,0,0,0,72.05,19.31Z"/></g></g></svg>